solid mesh
  facet normal 0.000000 0.000000 1.000000
    outer loop
      vertex 0.000000 0.000000 0.000000
      vertex 48.000000 0.000000 0.000000
      vertex 48.000000 48.000000 0.000000
    endloop
  endfacet
  facet normal 0.000000 0.000000 1.000000
    outer loop
      vertex 0.000000 0.000000 0.000000
      vertex 48.000000 48.000000 0.000000
      vertex 0.000000 48.000000 0.000000
    endloop
  endfacet
  facet normal 0.000000 1.000000 0.000000
    outer loop
      vertex 0.000000 0.000000 0.000000
      vertex 48.000000 0.000000 14.000000
      vertex 48.000000 0.000000 0.000000
    endloop
  endfacet
  facet normal 0.000000 1.000000 0.000000
    outer loop
      vertex 0.000000 0.000000 0.000000
      vertex 0.000000 0.000000 22.000000
      vertex 48.000000 0.000000 14.000000
    endloop
  endfacet
  facet normal 0.000000 -1.000000 0.000000
    outer loop
      vertex 0.000000 48.000000 0.000000
      vertex 48.000000 48.000000 0.000000
      vertex 48.000000 48.000000 14.000000
    endloop
  endfacet
  facet normal 0.000000 -1.000000 0.000000
    outer loop
      vertex 0.000000 48.000000 0.000000
      vertex 48.000000 48.000000 14.000000
      vertex 0.000000 48.000000 22.000000
    endloop
  endfacet
  facet normal 1.000000 0.000000 0.000000
    outer loop
      vertex 0.000000 0.000000 0.000000
      vertex 0.000000 48.000000 0.000000
      vertex 0.000000 48.000000 22.000000
    endloop
  endfacet
  facet normal 1.000000 0.000000 0.000000
    outer loop
      vertex 0.000000 0.000000 0.000000
      vertex 0.000000 48.000000 22.000000
      vertex 0.000000 0.000000 22.000000
    endloop
  endfacet
  facet normal -1.000000 0.000000 0.000000
    outer loop
      vertex 48.000000 0.000000 0.000000
      vertex 48.000000 0.000000 14.000000
      vertex 48.000000 48.000000 14.000000
    endloop
  endfacet
  facet normal -1.000000 0.000000 0.000000
    outer loop
      vertex 48.000000 0.000000 0.000000
      vertex 48.000000 48.000000 14.000000
      vertex 48.000000 48.000000 0.000000
    endloop
  endfacet
  facet normal -0.164399 0.000000 -0.986394
    outer loop
      vertex 0.000000 0.000000 22.000000
      vertex 48.000000 48.000000 14.000000
      vertex 48.000000 0.000000 14.000000
    endloop
  endfacet
  facet normal -0.164399 0.000000 -0.986394
    outer loop
      vertex 0.000000 0.000000 22.000000
      vertex 0.000000 48.000000 22.000000
      vertex 48.000000 48.000000 14.000000
    endloop
  endfacet
endsolid mesh
